<svg viewBox="0 0 17 29.0039" xmlns="http://www.w3.org/2000/svg" xmlns:xlink="http://www.w3.org/1999/xlink" width="17.000000" height="29.003941" fill="none" customFrame="#000000">
	<g style="mix-blend-mode:normal">
		<path id="chevron-right-solid" d="M15.9142 13.0897C16.6953 13.8708 16.6953 15.1393 15.9142 15.9204L3.9165 27.9181C3.13541 28.6992 1.86693 28.6992 1.08583 27.9181C0.304725 27.137 0.304725 25.8685 1.08583 25.0874L11.6712 14.502L1.09206 3.91653C0.310974 3.13543 0.310974 1.86692 1.09206 1.08582C1.87316 0.304725 3.14168 0.304725 3.92277 1.08583L15.9142 13.0897Z" fill="rgb(255,255,255)" fill-rule="nonzero" />
		<path id="chevron-right-solid" d="M15.9142 15.9204L3.9165 27.9181C3.13541 28.6992 1.86693 28.6992 1.08583 27.9181C0.304725 27.137 0.304725 25.8685 1.08583 25.0874L11.6712 14.502L1.09206 3.91653C0.310974 3.13543 0.310974 1.86692 1.09206 1.08582C1.87316 0.304725 3.14168 0.304725 3.92277 1.08583L15.9142 13.0897C16.6953 13.8708 16.6953 15.1393 15.9142 15.9204Z" fill-rule="nonzero" stroke="rgb(112,112,112)" stroke-opacity="0" stroke-width="1" />
	</g>
</svg>
