<svg viewBox="0 0 17 29.0039" xmlns="http://www.w3.org/2000/svg" xmlns:xlink="http://www.w3.org/1999/xlink" width="17.000000" height="29.003941" fill="none" customFrame="#000000">
	<g style="mix-blend-mode:normal">
		<path id="chevron-right-solid" d="M15.4142 12.5897C16.1953 13.3708 16.1953 14.6393 15.4142 15.4204L3.4165 27.4181C2.63541 28.1992 1.36693 28.1992 0.585826 27.4181C-0.195275 26.637 -0.195275 25.3685 0.585826 24.5874L11.1712 14.002L0.592061 3.41653C-0.189026 2.63543 -0.189026 1.36692 0.592061 0.585825C1.37316 -0.195275 2.64168 -0.195275 3.42277 0.585825L15.4142 12.5897Z" fill="rgb(255,255,255)" fill-rule="nonzero" transform="matrix(-1,1.22465e-16,-1.22465e-16,-1,16.5,28.5039)" />
		<path id="chevron-right-solid" d="M15.4142 15.4204L3.4165 27.4181C2.63541 28.1992 1.36693 28.1992 0.585826 27.4181C-0.195275 26.637 -0.195275 25.3685 0.585826 24.5874L11.1712 14.002L0.592061 3.41653C-0.189026 2.63543 -0.189026 1.36692 0.592061 0.585825C1.37316 -0.195275 2.64168 -0.195275 3.42277 0.585825L15.4142 12.5897C16.1953 13.3708 16.1953 14.6393 15.4142 15.4204Z" fill-rule="nonzero" stroke="rgb(112,112,112)" stroke-opacity="0" stroke-width="1" transform="matrix(-1,1.22465e-16,-1.22465e-16,-1,16.5,28.5039)" />
	</g>
</svg>
